<?xml version="1.0" encoding="utf-8" standalone="no"?>
<!DOCTYPE svg PUBLIC "-//W3C//DTD SVG 1.1//EN" "http://www.w3.org/Graphics/SVG/1.1/DTD/svg11.dtd">

<svg width="991px" height="939px" viewBox="0 0 991 939" xmlns="http://www.w3.org/2000/svg" xmlns:xlink="http://www.w3.org/1999/xlink" version="1.1" style="stroke:black; fill:none; stroke-width:0.5pt; stroke-linejoin:round; text-anchor:middle" font-family="Helvetica, Arial, FreeSans, Sans, sans, sans-serif">

<g>

<rect x="35.5" y="9.5" width="115.0" height="115.0" fill="black" stroke="none" />

<rect x="35.5" y="239.5" width="115.0" height="115.0" fill="black" stroke="none" />

<rect x="35.5" y="469.5" width="115.0" height="115.0" fill="black" stroke="none" />

<rect x="35.5" y="699.5" width="115.0" height="115.0" fill="black" stroke="none" />

<rect x="150.5" y="124.5" width="115.0" height="115.0" fill="black" stroke="none" />

<rect x="150.5" y="354.5" width="115.0" height="115.0" fill="black" stroke="none" />

<rect x="150.5" y="584.5" width="115.0" height="115.0" fill="black" stroke="none" />

<rect x="150.5" y="814.5" width="115.0" height="115.0" fill="black" stroke="none" />

<rect x="265.5" y="9.5" width="115.0" height="115.0" fill="black" stroke="none" />

<rect x="265.5" y="239.5" width="115.0" height="115.0" fill="black" stroke="none" />

<rect x="265.5" y="469.5" width="115.0" height="115.0" fill="black" stroke="none" />

<rect x="265.5" y="699.5" width="115.0" height="115.0" fill="black" stroke="none" />

<rect x="380.5" y="124.5" width="115.0" height="115.0" fill="black" stroke="none" />

<rect x="380.5" y="354.5" width="115.0" height="115.0" fill="black" stroke="none" />

<rect x="380.5" y="584.5" width="115.0" height="115.0" fill="black" stroke="none" />

<rect x="380.5" y="814.5" width="115.0" height="115.0" fill="black" stroke="none" />

<rect x="495.5" y="9.5" width="115.0" height="115.0" fill="black" stroke="none" />

<rect x="495.5" y="239.5" width="115.0" height="115.0" fill="black" stroke="none" />

<rect x="495.5" y="469.5" width="115.0" height="115.0" fill="black" stroke="none" />

<rect x="495.5" y="699.5" width="115.0" height="115.0" fill="black" stroke="none" />

<rect x="610.5" y="124.5" width="115.0" height="115.0" fill="black" stroke="none" />

<rect x="610.5" y="354.5" width="115.0" height="115.0" fill="black" stroke="none" />

<rect x="610.5" y="584.5" width="115.0" height="115.0" fill="black" stroke="none" />

<rect x="610.5" y="814.5" width="115.0" height="115.0" fill="black" stroke="none" />

<rect x="725.5" y="9.5" width="115.0" height="115.0" fill="black" stroke="none" />

<rect x="725.5" y="239.5" width="115.0" height="115.0" fill="black" stroke="none" />

<rect x="725.5" y="469.5" width="115.0" height="115.0" fill="black" stroke="none" />

<rect x="725.5" y="699.5" width="115.0" height="115.0" fill="black" stroke="none" />

<rect x="840.5" y="124.5" width="115.0" height="115.0" fill="black" stroke="none" />

<rect x="840.5" y="354.5" width="115.0" height="115.0" fill="black" stroke="none" />

<rect x="840.5" y="584.5" width="115.0" height="115.0" fill="black" stroke="none" />

<rect x="840.5" y="814.5" width="115.0" height="115.0" fill="black" stroke="none" />

</g>

</svg>

